<?xml version="1.0" encoding="utf-8"?>
<!-- Generator: Adobe Illustrator 16.0.0, SVG Export Plug-In . SVG Version: 6.00 Build 0)  -->
<!DOCTYPE svg PUBLIC "-//W3C//DTD SVG 1.1//EN" "http://www.w3.org/Graphics/SVG/1.1/DTD/svg11.dtd">
<svg version="1.1" id="Layer_1" xmlns="http://www.w3.org/2000/svg" xmlns:xlink="http://www.w3.org/1999/xlink" x="0px" y="0px"
	 width="800px" height="800px" viewBox="0 0 800 800" enable-background="new 0 0 800 800" xml:space="preserve">
<g>
	<path fill="#d0e1fb" d="M502.765,296.977c-18.239-12.16-35.222-21.28-50.92-27.36c-15.71-6.08-33.19-9.12-52.44-9.12
		c-27.36,0-41.04,8.11-41.04,24.32c0,7.101,5.32,13.181,15.96,18.24c10.64,5.071,23.81,10.391,39.52,15.96
		c15.698,5.581,32.929,11.911,51.681,19c18.738,7.101,35.969,15.96,51.68,26.6c15.698,10.64,28.88,23.94,39.52,39.901
		c10.641,15.959,15.96,35.34,15.96,58.139c0,31.92-10.64,59.791-31.92,83.601c-21.28,23.821-53.461,39.781-96.521,47.88v114.76
		h-85.119V597.938c-24.32-3.041-49.662-9.619-76-19.761c-26.351-10.13-49.4-23.81-69.16-41.04l56.24-88.16
		c25.84,15.2,49.27,26.6,70.3,34.2c21.019,7.601,42.679,11.399,64.979,11.399c28.369,0,42.561-7.6,42.561-22.799
		c0-8.609-5.32-15.83-15.96-21.66c-10.64-5.818-23.821-11.65-39.52-17.48c-15.711-5.818-32.941-12.279-51.68-19.38
		c-18.75-7.089-35.981-16.079-51.68-26.98c-15.71-10.889-28.88-24.32-39.52-40.28c-10.64-15.96-15.96-35.839-15.96-59.66
		c0-33.44,11.02-61.18,33.06-83.22s52.82-36.599,92.34-43.7v-99.56h85.119v98.04c25.841,4.061,48.641,11.78,68.4,23.18
		c19.76,11.4,37.738,25.211,53.961,41.42L502.765,296.977z"/>
</g>
</svg>
